<?xml version="1.0" encoding="UTF-8"?>
<svg width="39px" height="40px" viewBox="0 0 39 40" version="1.1" xmlns="http://www.w3.org/2000/svg" xmlns:xlink="http://www.w3.org/1999/xlink">
    <title>形状结合</title>
    <g id="封面/目录" stroke="none" stroke-width="1" fill="none" fill-rule="evenodd">
        <g id="编组-9" transform="translate(-573, -4)" fill="#EF1C2F" fill-rule="nonzero">
            <path d="M576.881892,21.235765 L580.450462,24.8041433 L580.38268,24.87313 C577.235834,28.1237009 577.267944,33.3099197 580.479012,36.5209876 C583.7129,39.7548751 588.950111,39.7644621 592.195876,36.5497487 L595.764033,40.1177144 L595.635716,40.2441837 C590.410115,45.3030383 582.072776,45.2514173 576.910679,40.0893208 L576.755816,39.9319282 C571.756877,34.7682174 571.748077,26.5660415 576.729414,21.3916323 L576.881892,21.235765 Z M592.417879,13.3160236 L604.512414,4 L599.920819,17.5607789 L607.492343,16.6473294 L602.663827,23.0830718 L611.570065,25.829445 L602.638402,29.682258 L606.245418,35.3702608 L600.389683,35.3702553 L597.78469,37.9753136 L594.216265,34.4068885 L597.546837,31.0764355 L595.209819,27.390919 L597.0017,26.6178775 L594.322938,25.7918752 L596.362671,23.0730359 L592.57191,23.5303217 L594.387004,18.1691054 L590.921987,20.8381842 L588.636635,16.8638388 L585.916869,19.3631275 L585.910577,19.36078 L582.540401,22.7310252 L578.972081,19.1627052 L581.472017,16.6628227 L581.47204,12.2468077 L584.806996,13.5296032 L589.867048,8.87978168 L592.417879,13.3160236 Z" id="形状结合"></path>
        </g>
    </g>
</svg>