<svg width="20" height="20" viewBox="0 0 20 20" fill="none" xmlns="http://www.w3.org/2000/svg">
<g id="Icon/Utility Icon/line/error">
<path id="Union" fill-rule="evenodd" clip-rule="evenodd" d="M9.99997 20C4.48608 20 0 15.5139 0 10C0 4.48607 4.48606 0 9.99997 0C15.5139 0 19.9999 4.48609 19.9999 10C19.9999 15.5139 15.5139 20 9.99997 20ZM9.99997 1.875C5.52001 1.875 1.875 5.52002 1.875 10C1.875 14.48 5.52001 18.125 9.99997 18.125C14.4799 18.125 18.125 14.48 18.125 10C18.125 5.52002 14.4799 1.875 9.99997 1.875ZM13.7878 7.53784L11.3257 9.99999L13.7878 12.4621C14.154 12.8283 14.154 13.4216 13.7878 13.7878C13.6047 13.9709 13.3655 14.0625 13.125 14.0625C12.8845 14.0625 12.6452 13.9709 12.4621 13.7878L9.99998 11.3257L7.53784 13.7878C7.35473 13.9709 7.11548 14.0625 6.875 14.0625C6.63451 14.0625 6.39526 13.9709 6.21216 13.7878C5.84595 13.4216 5.84595 12.8283 6.21216 12.4621L8.6743 9.99999L6.21216 7.53784C5.84595 7.17163 5.84595 6.57837 6.21216 6.21216C6.57836 5.84595 7.17163 5.84595 7.53784 6.21216L10 8.67431L12.4621 6.21216C12.8283 5.84595 13.4216 5.84595 13.7878 6.21216C14.154 6.57837 14.154 7.17163 13.7878 7.53784Z" fill="#E72B00"/>
</g>
</svg>
