<?xml version="1.0" encoding="UTF-8"?>
<svg viewBox="0 0 2199 258" version="1.1" xmlns="http://www.w3.org/2000/svg" xmlns:xlink="http://www.w3.org/1999/xlink">
    <title>编组 5</title>
    <defs>
        <linearGradient x1="45.9111958%" y1="57.6904311%" x2="4.78458419e-14%" y2="70.534914%" id="linearGradient-1">
            <stop stop-color="#373ED8" offset="0%"></stop>
            <stop stop-color="#497DFF" offset="100%"></stop>
        </linearGradient>
        <path d="M1812.80909,215.823442 L1812.80909,252.015442 L1952.00909,252.015442 L1952.00909,211.995442 L1870.22909,211.995442 L1930.08509,134.391442 C1937.27682,125.111446 1942.72882,116.063446 1946.44109,107.247442 C1950.15309,98.4314389 1952.00909,88.8034425 1952.00909,78.3634425 L1952.00909,72.4474425 C1952.00909,60.6154425 1949.16709,49.8274425 1943.48309,40.0834425 C1937.79935,30.3394425 1929.67935,22.5674425 1919.12309,16.7674425 C1908.56709,10.9674354 1896.32909,8.06744248 1882.40909,8.06744248 C1868.02509,8.06744248 1855.49709,10.8514425 1844.82509,16.4194425 C1834.15309,21.9874425 1825.97509,29.6434425 1820.29109,39.3874425 C1814.6071,49.1314425 1811.76509,60.2674425 1811.76509,72.7954425 L1811.76509,81.1474425 L1855.96109,81.1474425 L1855.96109,75.5794425 C1855.96109,66.5314425 1858.16509,59.4554496 1862.57309,54.3514425 C1866.98109,49.2474354 1873.01309,46.6954425 1880.66909,46.6954425 C1888.32509,46.6954425 1894.41509,49.1314425 1898.93909,54.0034425 C1903.46309,58.8754425 1905.72509,65.4874425 1905.72509,73.8394425 L1905.72509,78.7114425 C1905.72509,89.3834389 1901.31709,100.635442 1892.50109,112.467442 L1812.80909,215.823442 Z M1976.89309,202.599442 L1976.89309,252.015442 L2025.26509,252.015442 L2025.26509,202.599442 L1976.89309,202.599442 Z M2069.81109,237.051442 C2082.91909,249.579442 2101.07309,255.843442 2124.27309,255.843442 C2146.54509,255.843442 2164.46709,249.463444 2178.03909,236.703442 C2191.61109,223.943441 2198.39709,206.195446 2198.39709,183.459442 L2198.39709,172.323442 C2198.39709,151.675439 2192.77109,135.377446 2181.51909,123.429442 C2170.26709,111.481439 2155.24509,105.507442 2136.45309,105.507442 C2129.95709,105.507442 2124.15709,106.667446 2119.05309,108.987442 L2168.81709,11.8954425 L2120.79309,11.8954425 L2065.80909,118.731442 C2060.70509,128.939446 2056.81909,138.335446 2054.15109,146.919442 C2051.48309,155.503439 2050.14909,164.551444 2050.14909,174.063442 L2050.14909,184.851442 C2050.14909,207.123442 2056.70309,224.523442 2069.81109,237.051442 Z M2145.15309,208.863442 C2140.04909,214.431442 2133.08909,217.215442 2124.27309,217.215442 C2115.45709,217.215442 2108.55509,214.431442 2103.56709,208.863442 C2098.57909,203.295442 2096.08509,195.639442 2096.08509,185.895442 L2096.08509,174.411442 C2096.08509,164.667448 2098.57909,157.06945 2103.56709,151.617442 C2108.55507,146.165446 2115.45707,143.439442 2124.27309,143.439442 C2133.08909,143.439442 2140.04909,146.165446 2145.15309,151.617442 C2150.25709,157.069439 2152.80909,164.783441 2152.80909,174.759442 L2152.80909,185.547442 C2152.80909,195.523444 2150.25709,203.295442 2145.15309,208.863442 Z" id="path-2"></path>
    </defs>
    <g id="页面-1" stroke="none" stroke-width="1" fill="none" fill-rule="evenodd">
        <g id="画板备份-14" transform="translate(-1928, -1764)" fill-rule="nonzero">
            <g id="编组-5" transform="translate(1928, 1764.9846)">
                <path d="M760.177408,6.08426104 C780.959767,6.08426104 798.639412,11.1994393 813.310847,21.4099653 L814.826937,22.4868416 C827.871266,31.9421726 838.44267,44.5805385 846.551989,60.4441981 L846.854209,61.0497535 L805.164914,79.6080391 L804.700192,78.6693484 C800.249247,69.9367001 794.263119,63.1340103 786.753168,58.3199387 C778.149995,52.8050845 768.233984,50.0506369 757.083763,50.0506369 C744.833865,50.0506369 733.831738,53.5163071 724.177049,60.4281868 C714.581392,67.2978043 707.134706,76.9187061 701.846243,89.2224762 C696.604371,101.417853 693.991732,115.174193 693.991732,130.467076 C693.991732,146.161685 696.600155,160.26846 701.833896,172.765351 C707.114285,185.373628 714.549996,195.251726 724.136357,202.332561 C733.797042,209.468294 744.814803,213.049067 757.083763,213.049067 C767.641468,213.049067 777.212416,210.227573 785.712813,204.59744 L787.029919,203.697896 C793.997044,198.793482 800.045118,192.1801 805.176059,183.885785 L805.493229,183.359111 L847.470223,202.046016 L847.190902,202.601562 C838.534575,219.439902 826.824502,232.527091 812.037303,241.920218 C796.196991,251.982303 778.007922,257.015442 757.393128,257.015442 C735.537395,257.015442 716.157915,251.671101 699.179392,240.984619 C682.183395,230.287139 668.940168,215.394755 659.416171,196.246509 C649.861213,177.036014 645.075526,155.122604 645.075526,130.467076 C645.075526,106.236416 649.907085,84.6957154 659.55475,65.8023698 C669.170256,46.9720039 682.655972,32.3375052 700.053275,21.8391328 C717.453143,11.3392121 737.472005,6.08426104 760.177408,6.08426104 Z M472.804069,70.4320631 C490.215347,70.4320631 503.551514,75.9687387 513.08592,87.0440588 L513.922858,88.0433234 C522.993334,99.1752071 527.579887,114.927363 527.579887,135.416907 L527.579887,252.681061 L482.065262,252.681061 L482.066689,147.48212 C482.066689,137.230753 479.444996,128.966722 474.122797,122.834623 C468.710698,116.598944 461.272898,113.470346 452.076652,113.470346 C441.497963,113.470346 432.82714,116.858283 426.285393,123.629565 L425.517793,124.451905 C419.503248,131.122279 416.518055,139.98993 416.518055,150.885129 L416.517248,252.681061 L371.003248,252.681061 L371.003248,74.7611551 L416.517248,74.7611551 L416.518055,98.8935909 L423.358335,98.8935909 L424.345965,97.2602023 C429.414322,88.8779197 436.064565,82.3247602 444.331449,77.5591448 C452.566403,72.8119363 462.037327,70.4320631 472.804069,70.4320631 Z M605.481416,74.7611551 L605.481416,252.681061 L559.9708,252.681061 L559.9708,74.7611551 L605.481416,74.7611551 Z M335.78549,74.7611551 L335.78549,252.681061 L290.27149,252.681061 L290.27149,74.7611551 L335.78549,74.7611551 Z M0,10.4147082 L43.0533273,10.4147082 L122.24903,130.758127 L127.754059,130.758127 L206.947055,10.4147082 L250.000382,10.4147082 L250.000382,252.681061 L204.178374,252.681061 L204.180526,104.498777 L197.139835,104.498777 L143.308009,184.313596 L106.66868,184.313596 L52.5323692,105.736235 L45.5131981,105.736235 L45.5106162,252.681061 L0,252.681061 L0,10.4147082 Z M961.869908,10.4147082 C981.192886,10.4147082 997.923497,13.7715036 1012.08946,20.4554447 C1026.1438,27.0867173 1036.87643,36.5393059 1044.3624,48.8517555 C1051.8649,61.1913978 1055.62564,75.6900619 1055.62564,92.415251 C1055.62564,109.151297 1051.96203,123.607707 1044.65738,135.847946 C1037.36788,148.062782 1026.98507,157.46144 1013.43892,164.086199 C999.800233,170.756213 983.652345,174.105774 964.963553,174.105774 L922.598939,174.105774 L922.596926,252.681061 L875.228112,252.681061 L875.228112,10.4147082 L961.869908,10.4147082 Z M953.826433,52.8349168 L922.598939,52.8349168 L922.598939,131.686221 L953.826433,131.686221 C969.953126,131.686221 982.80491,128.309905 992.310812,121.456813 C1002.06659,114.423581 1007.0188,104.634314 1007.0188,92.415251 C1007.0188,80.2034681 1002.0737,70.3707714 992.331646,63.2341476 C982.822362,56.2680445 969.961757,52.8349168 953.826433,52.8349168 Z M335.78549,0 L335.78549,45.5106162 L290.27149,45.5106162 L290.27149,0 L335.78549,0 Z M605.119253,0 L605.119253,45.5106162 L559.605252,45.5106162 L559.605252,0 L605.119253,0 Z" id="形状" fill="#111111"></path>
                <g id="M-V" transform="translate(1084.9431, 11.7574)" fill="#000111">
                    <polygon id="路径" points="44.394 239.184 0 239.184 0 0 41.676 0 119.894 123.216 121.706 123.216 200.226 0 241.902 0 241.902 239.184 197.508 239.184 197.508 85.466 195.696 85.466 137.41 176.368 104.492 176.368 46.206 86.372 44.394 86.372"></polygon>
                    <polygon id="路径" points="274.216 96.942 374.48 96.942 374.48 138.014 274.216 138.014"></polygon>
                </g>
                <g id="o" transform="translate(1501.3431, 42.9174)" fill="#000111">
                    <path d="M95.4,213.12 C75.96,213.12 59.04,208.8 44.64,200.16 C30.24,191.52 19.2,179.16 11.52,163.08 C3.84,147 0,128.16 0,106.56 C0,84.96 3.84,66.12 11.52,50.04 C19.2,33.96 30.24,21.6 44.64,12.96 C59.04,4.32 75.96,0 95.4,0 C114.84,0 131.76,4.32 146.16,12.96 C160.56,21.6 171.66,33.96 179.46,50.04 C187.26,66.12 191.16,84.96 191.16,106.56 C191.16,128.16 187.26,147 179.46,163.08 C171.66,179.16 160.56,191.52 146.16,200.16 C131.76,208.8 114.84,213.12 95.4,213.12 Z M95.4,169.92 C110.52,169.92 122.46,164.22 131.22,152.82 C139.98,141.42 144.36,126 144.36,106.56 C144.36,86.88 139.98,71.4 131.22,60.12 C122.46,48.84 110.52,43.2 95.4,43.2 C80.52,43.2 68.7,48.84 59.94,60.12 C51.18,71.4 46.8,86.88 46.8,106.56 C46.8,126 51.18,141.42 59.94,152.82 C68.7,164.22 80.52,169.92 95.4,169.92 Z" id="形状"></path>
                </g>
                <g id="形状结合">
                    <use fill="#000111" xlink:href="#path-2"></use>
                    <use fill="url(#linearGradient-1)" xlink:href="#path-2"></use>
                </g>
            </g>
        </g>
    </g>
</svg>