<svg width="18" height="18" viewBox="0 0 18 18" fill="none" xmlns="http://www.w3.org/2000/svg">
<g id="Pause">
<path id="Vector" fill-rule="evenodd" clip-rule="evenodd" d="M4.875 2.2522H7.125C7.5375 2.2522 7.875 2.5897 7.875 3.0022V15.0022C7.875 15.4147 7.5375 15.7522 7.125 15.7522H4.875C4.4625 15.7522 4.125 15.4147 4.125 15.0022V3.0022C4.125 2.5897 4.4625 2.2522 4.875 2.2522ZM10.875 2.2522H13.125C13.5375 2.2522 13.875 2.5897 13.875 3.0022V15.0022C13.875 15.4147 13.5375 15.7522 13.125 15.7522H10.875C10.4625 15.7522 10.125 15.4147 10.125 15.0022V3.0022C10.125 2.5897 10.4625 2.2522 10.875 2.2522Z" fill="currentColor" />
</g>
</svg>
