<svg xmlns="http://www.w3.org/2000/svg" width="24" height="24" viewBox="0 0 24 24" fill="none">
  <g clip-path="url(#clip0_7781_19663)">
    <path d="M21.7786 18.4946C22.7599 18.6754 23.7615 17.9845 23.7955 16.9048C23.827 15.9053 23.7672 14.6519 23.4533 13.4613C23.141 12.2768 22.5546 11.0725 21.4695 10.2892C20.3647 9.49176 18.7205 8.97497 17.1207 8.64947C15.4984 8.31938 13.8179 8.16607 12.5642 8.15054C10.9332 8.13034 8.67094 8.26243 6.60622 8.68941C5.57392 8.90289 4.56701 9.19489 3.70489 9.59193C2.85192 9.98474 2.07652 10.5096 1.58739 11.2247C0.257894 13.1683 0.172116 15.4886 0.325588 16.9453C0.436943 18.0022 1.45742 18.5535 2.36025 18.353C3.07081 18.1951 3.71743 18.0593 4.36845 17.9225C5.30139 17.7265 6.24339 17.5286 7.3955 17.2614C7.46587 17.2451 7.53161 17.2194 7.59169 17.1859C7.85982 17.0768 8.05173 16.8168 8.05917 16.509C8.09666 14.957 8.40578 14.0228 8.95698 13.4586C9.50108 12.9017 10.4369 12.5484 12.1227 12.5476C13.8976 12.5468 14.8691 12.862 15.4225 13.3997C15.9698 13.9314 16.2828 14.8523 16.2836 16.5335C16.2836 16.5634 16.2854 16.5928 16.2888 16.6217C16.279 16.6521 16.2711 16.6836 16.2651 16.7159C16.19 17.1233 16.4594 17.5144 16.8668 17.5894L21.7786 18.4946Z" fill="currentColor" />
  </g>
  <defs>
    <clipPath id="clip0_7781_19663">
      <rect width="24" height="24" fill="white"/>
    </clipPath>
  </defs>
</svg>