<svg t="1736675176012" class="icon" viewBox="0 0 1024 1024" version="1.1" xmlns="http://www.w3.org/2000/svg" p-id="4244" xmlns:xlink="http://www.w3.org/1999/xlink"><path d="M512 106.667A405.333 405.333 0 1 1 106.667 512 405.333 405.333 0 0 1 512 106.667m0-64A469.333 469.333 0 1 0 981.333 512 469.333 469.333 0 0 0 512 42.667z" p-id="4245"></path><path d="M501.333 664.533a32 32 0 1 0 32 32 32 32 0 0 0-32-32z m-0.426-27.093a32 32 0 0 1-32-32c0-80.213 50.56-111.787 91.306-136.96 32-19.84 51.84-33.28 59.094-60.16a85.333 85.333 0 0 0-12.587-69.547 91.52 91.52 0 0 0-76.8-29.226 123.52 123.52 0 0 0-92.16 29.866 82.56 82.56 0 0 0-21.333 52.907 32 32 0 1 1-64 2.56 144 144 0 0 1 39.466-99.84c31.574-32.853 78.08-49.493 138.24-49.493 70.827 0 108.587 29.44 128 54.186a149.333 149.333 0 0 1 23.894 125.014c-14.08 52.693-54.614 77.866-87.04 98.133-40.32 24.747-61.654 39.68-61.654 82.56a32 32 0 0 1-32.426 32z" p-id="4246"></path></svg>