<svg width="24" height="24" viewBox="0 0 24 24" fill="none" xmlns="http://www.w3.org/2000/svg">
<g id="&#228;&#184;&#139;&#232;&#189;&#189;">
<rect width="24" height="24" rx="7" fill="#EAEFFF"/>
<path id="Vector" d="M12.2816 16.1003C11.9134 16.1003 11.615 15.8019 11.615 15.4337V6.2513L8.28168 9.50983C8.11137 9.6765 7.86502 9.73978 7.63559 9.67571C7.40617 9.61165 7.22831 9.42989 7.16894 9.1989C7.10956 8.96817 7.17805 8.72313 7.34836 8.55646L11.8163 4.18987C12.0785 3.93363 12.4985 3.93727 12.7563 4.19794L17.088 8.56323C17.3399 8.82599 17.3344 9.24187 17.0763 9.49811C16.818 9.7541 16.4018 9.75592 16.1414 9.50202L12.9483 6.28489V15.4337C12.9483 15.8019 12.6498 16.1003 12.2816 16.1003Z" fill="#424EC5"/>
<path id="Vector_2" d="M4.66666 13.6001C5.03488 13.6001 5.33331 13.8985 5.33331 14.2668V17.4667C5.33331 17.8349 5.63174 18.1334 5.99997 18.1334H17.9998C18.368 18.1334 18.6664 17.8349 18.6664 17.4667V14.2668C18.6664 13.8985 18.9648 13.6001 19.3331 13.6001C19.7013 13.6001 19.9997 13.8985 19.9997 14.2668V17.4667C19.9997 18.5714 19.1044 19.4667 17.9998 19.4667H5.99997C4.8953 19.4667 4 18.5714 4 17.4667V14.2668C4 13.8985 4.29843 13.6001 4.66666 13.6001Z" fill="#424EC5"/>
</g>
</svg>
