<svg xmlns="http://www.w3.org/2000/svg" width="195" height="45" viewBox="0 0 195 45" fill="none">
  <rect x="16" y="18.2257" width="3.14815" height="8.54867" rx="1.57407" fill="#F3F3F3"/>
  <rect x="11" y="18.2257" width="3.14815" height="8.54867" rx="1.57407" fill="#F3F3F3"/>
  <rect x="6" y="18.2257" width="3.14815" height="8.54867" rx="1.57407" fill="#F3F3F3"/>
  <rect x="0.907227" y="18.2257" width="3.14815" height="8.54867" rx="1.57407" fill="#F3F3F3"/>
  <rect x="71" y="18" width="3.14815" height="8.54867" rx="1.57407" fill="#F3F3F3"/>
  <rect x="91" y="18" width="3.14815" height="8.54867" rx="1.57407" fill="#F3F3F3"/>
  <rect x="111" y="18" width="3.14815" height="8.54867" rx="1.57407" fill="#F3F3F3"/>
  <rect x="131" y="18" width="3.14815" height="8.54867" rx="1.57407" fill="#F3F3F3"/>
  <rect x="66" y="18" width="3.14815" height="8.54867" rx="1.57407" fill="#F3F3F3"/>
  <rect x="86" y="18" width="3.14815" height="8.54867" rx="1.57407" fill="#F3F3F3"/>
  <rect x="106" y="18" width="3.14815" height="8.54867" rx="1.57407" fill="#F3F3F3"/>
  <rect x="126" y="18" width="3.14815" height="8.54867" rx="1.57407" fill="#F3F3F3"/>
  <rect x="61" y="18" width="3.14815" height="8.54867" rx="1.57407" fill="#F3F3F3"/>
  <rect x="81" y="18" width="3.14815" height="8.54867" rx="1.57407" fill="#F3F3F3"/>
  <rect x="101" y="18" width="3.14815" height="8.54867" rx="1.57407" fill="#F3F3F3"/>
  <rect x="121" y="18" width="3.14815" height="8.54867" rx="1.57407" fill="#F3F3F3"/>
  <rect x="56" y="18" width="3.14815" height="8.54867" rx="1.57407" fill="#F3F3F3"/>
  <rect x="76" y="18" width="3.14815" height="8.54867" rx="1.57407" fill="#F3F3F3"/>
  <rect x="96" y="18" width="3.14815" height="8.54867" rx="1.57407" fill="#F3F3F3"/>
  <rect x="116" y="18" width="3.14815" height="8.54867" rx="1.57407" fill="#F3F3F3"/>
  <rect x="21" y="13.3407" width="3.14815" height="18.3186" rx="1.57407" fill="#F3F3F3"/>
  <rect width="3.14815" height="18.3186" rx="1.57407" transform="matrix(-1 0 0 1 54 13.3849)" fill="#F3F3F3"/>
  <rect x="26" y="8.45581" width="3.14815" height="28.0885" rx="1.57407" fill="#F3F3F3"/>
  <rect width="3.14815" height="28.0885" rx="1.57407" transform="matrix(-1 0 0 1 49 8.5)" fill="#F3F3F3"/>
  <rect x="31" y="9.9823" width="3.14815" height="25.0354" rx="1.57407" fill="#F3F3F3"/>
  <rect width="3.14815" height="25.0354" rx="1.57407" transform="matrix(-1 0 0 1 44 10.0265)" fill="#F3F3F3"/>
  <rect x="36" y="5.09729" width="3.14815" height="34.8053" rx="1.57407" fill="#F3F3F3"/>
  <rect x="151" y="15.4779" width="3.14815" height="14.0442" rx="1.57407" fill="#F3F3F3"/>
  <rect x="156" y="5.70801" width="3.14815" height="33.5841" rx="1.57407" fill="#F3F3F3"/>
  <rect x="161" y="7.53979" width="3.14815" height="29.9204" rx="1.57407" fill="#F3F3F3"/>
  <rect x="166" y="15.4779" width="3.14815" height="14.0442" rx="1.57407" fill="#F3F3F3"/>
  <rect x="171" y="10.8982" width="3.14815" height="23.2035" rx="1.57407" fill="#F3F3F3"/>
  <rect width="3.14815" height="29.9204" rx="1.57407" transform="matrix(-1 0 0 1 149 7.5)" fill="#F3F3F3"/>
  <rect width="3.14815" height="14.0442" rx="1.57407" transform="matrix(-1 0 0 1 144 15.4381)" fill="#F3F3F3"/>
  <rect width="3.14815" height="23.2035" rx="1.57407" transform="matrix(-1 0 0 1 139 10.8584)" fill="#F3F3F3"/>
  <rect x="176" y="18.2257" width="3.14815" height="8.54867" rx="1.57407" fill="#F3F3F3"/>
  <rect x="181" y="18.2257" width="3.14815" height="8.54867" rx="1.57407" fill="#F3F3F3"/>
  <rect x="186" y="18.2257" width="3.14815" height="8.54867" rx="1.57407" fill="#F3F3F3"/>
  <rect x="191" y="18.2257" width="3.14815" height="8.54867" rx="1.57407" fill="#F3F3F3"/>
</svg>