<svg width="20" height="20" viewBox="0 0 20 20" fill="none" xmlns="http://www.w3.org/2000/svg">
<g id="Icon/Utility Icon/line/warning">
<path id="Union" fill-rule="evenodd" clip-rule="evenodd" d="M11.8265 2.57765L19.6724 15.1369C20.0876 15.8014 20.1095 16.6395 19.7298 17.3248C19.3513 18.0101 18.6285 18.4352 17.8459 18.4352H2.15406C1.37142 18.4352 0.648615 18.0101 0.270115 17.3248C-0.109605 16.6395 -0.0876187 15.8014 0.327499 15.1369L8.17341 2.57765C8.569 1.94364 9.25275 1.56494 9.99998 1.56494C10.7472 1.56494 11.431 1.94364 11.8265 2.57765ZM17.8459 16.5589C17.9887 16.5589 18.0608 16.4685 18.0901 16.4148C18.1194 16.361 18.1585 16.2535 18.0828 16.1314L10.2369 3.57211C10.1661 3.4585 10.0574 3.44141 10 3.44141C9.94262 3.44141 9.83395 3.4585 9.76313 3.57211L1.91722 16.1314C1.84151 16.2535 1.88058 16.361 1.90988 16.4148C1.93918 16.4685 2.01122 16.5589 2.15407 16.5589H17.8459ZM9.99995 12.1893C10.5176 12.1893 10.9377 11.769 10.9377 11.2511V7.69991C10.9377 7.18195 10.5176 6.76172 9.99995 6.76172C9.48226 6.76172 9.06225 7.18195 9.06225 7.69991V11.2511C9.06225 11.7691 9.48226 12.1893 9.99995 12.1893ZM9.99996 15.6293C9.30946 15.6293 8.7497 15.0692 8.7497 14.3784C8.7497 13.6875 9.30946 13.1274 9.99996 13.1274C10.6905 13.1274 11.2502 13.6875 11.2502 14.3784C11.2502 15.0692 10.6905 15.6293 9.99996 15.6293Z" fill="#F9AC2A"/>
</g>
</svg>
